HIERARCHY
ROOT pelvis
{
  OFFSET 0 100 0
  CHANNELS 6 Xposition Yposition Zposition Zrotation Xrotation Yrotation
  JOINT pelvis_right_femur
  {
    OFFSET -10.78128 -3.44521 -0.5502486
    CHANNELS 3 Zrotation Xrotation Yrotation
    JOINT right_femur_tibia
    {
      OFFSET -0.8047443 -44.0398 -0.1307829
      CHANNELS 3 Zrotation Xrotation Yrotation
      JOINT right_tibia_foot
      {
        OFFSET 3.006224 -47.83518 -5
        CHANNELS 3 Zrotation Xrotation Yrotation
        End Site
        {
          OFFSET 0 -5 15
        }
      }
    }
  }
  JOINT pelvis_left_femur
  {
    OFFSET 10.78128 -3.44521 -0.5502486
    CHANNELS 3 Zrotation Xrotation Yrotation
    JOINT left_femur_tibia
    {
      OFFSET 0.8047443 -44.0398 -0.1307829
      CHANNELS 3 Zrotation Xrotation Yrotation
      JOINT left_tibia_foot
      {
        OFFSET -4.370144 -48.10324 -4.275266
        CHANNELS 3 Zrotation Xrotation Yrotation
        End Site
        {
          OFFSET 0 -5 15
        }
      }
    }
  }
  JOINT pelvis_spine1
  {
    OFFSET 0 6.468898 -3.129235
    CHANNELS 3 Zrotation Xrotation Yrotation
    JOINT spine1
    {
      OFFSET 0 23.15396 4.99043
      CHANNELS 3 Zrotation Xrotation Yrotation
      JOINT spine2
      {
        OFFSET 0 20.79997 -5.064912
        CHANNELS 3 Zrotation Xrotation Yrotation
        JOINT neck
        {
          OFFSET 0 14.38658 9.616178
          CHANNELS 3 Zrotation Xrotation Yrotation
          End Site
          {
            OFFSET 0 20 0
          }
        }
      }
      JOINT right_manubrium
      {
        OFFSET -5.722621 16.35077 3.967754
        CHANNELS 3 Zrotation Xrotation Yrotation
        JOINT right_clavicle
        {
          OFFSET -13.16364 1.694482 -4.693211
          CHANNELS 3 Zrotation Xrotation Yrotation
          JOINT right_humerus
          {
            OFFSET -28.5034 -0.3100689 -2.792744
            CHANNELS 3 Zrotation Xrotation Yrotation
            JOINT right_radius
            {
              OFFSET -25.15693 0.02248979 -1.271978
              CHANNELS 3 Zrotation Xrotation Yrotation
              End Site
              {
                OFFSET -15 0 0
              }
            }
          }
        }
      }
      JOINT left_manubrium
      {
        OFFSET 5.722621 16.35077 3.967754
        CHANNELS 3 Zrotation Xrotation Yrotation
        JOINT left_clavicle
        {
          OFFSET 13.16364 1.694482 -4.693211
          CHANNELS 3 Zrotation Xrotation Yrotation
          JOINT left_humerus
          {
            OFFSET 29.39168 -1.063119 -2.237045
            CHANNELS 3 Zrotation Xrotation Yrotation
            JOINT left_radius
            {
              OFFSET 24.59957 -0.9528479 0.9047498
              CHANNELS 3 Zrotation Xrotation Yrotation
              End Site
              {
                OFFSET 15 -0 -0
              }
            }
          }
        }
      }
    }
  }
}
MOTION
Frames: 23
Frame Time: 0.0416666666667
0 103.5113 0 1.134507 -3.139569 0.21621 1.557607 -11.80359 7.007578 -0 40.83258 -0 -6.195272 -15.64517 -3.233176 -6.281143 11.94468 -24.55395 -0 5.297564 -0 -0.8735167 -18.65684 22.72227 -1.700757 -2.862867 4.892179 -1.134388 8.499702 -6.930022 1.690493 22.13778 8.582919 5.778351 -21.1063 9.199852 5.787945 -20.116 9.643335 89.55081 36.95611 -24.07753 -0 0 18.76465 -8.300429 8.872446 2.133837 7.481429 -21.51455 -2.914897 -100.6236 43.47218 28.56969 0 0 -26.31893 -9.292461 16.335 28.10896
0.2040319 103.6039 1.207108 0.8118688 -2.511622 0.3335226 1.967107 -12.88684 8.117971 -0 42.12582 -0 -5.686033 -15.86948 -3.634756 -6.061143 11.64126 -24.89332 -0 5.268665 -0 -2.272977 -19.14847 22.36452 -1.507632 -2.788509 5.114857 -1.254617 8.450167 -6.855509 1.707989 22.18914 8.508794 5.757041 -21.0863 9.130583 5.667134 -20.04907 9.570241 89.5529 37.25298 -23.89062 -0 0 18.6171 -8.512586 9.150262 2.066718 7.57875 -21.7229 -2.74031 -100.6013 43.21737 28.62055 0 0 -26.31419 -8.902169 16.68808 27.91602
0.4040859 103.5044 2.794329 0.06331728 -0.8054136 0.3389315 3.789732 -20.17436 7.634884 -0 36.54734 -0 -5.864352 -13.44818 -3.670154 -5.771292 11.85835 -22.99646 -0 5.588212 -0 -0.6123871 -21.26425 21.86911 -1.228022 -2.060761 4.313445 0.00989573 7.979655 -7.287912 1.498949 22.04735 8.332938 5.344551 -22.24313 8.950219 5.840551 -18.89081 10.07676 88.96415 36.30704 -23.69938 -0 0 16.65246 -8.373954 9.268033 3.037885 6.789992 -21.08169 -3.02974 -98.71931 41.2055 26.76376 0 0 -25.60531 -8.355195 16.4516 26.70429
0.6078519 103.2355 4.643892 -0.4010299 0.5248848 0.3462956 5.035477 -25.01198 7.78052 -0 32.69168 -0 -5.737635 -12.08629 -3.820143 -5.613652 12.10474 -22.02689 -0 5.581202 -0 0.4073911 -22.73047 21.59013 -1.04604 -1.717887 3.958316 0.5737331 7.77947 -7.499398 1.412728 21.94568 8.251278 5.169089 -22.7733 8.856092 5.918832 -18.33055 10.2936 88.74125 35.87859 -23.67678 -0 0 15.69798 -8.330643 9.395028 3.457128 6.487862 -20.8609 -3.140911 -97.83122 40.20142 25.86033 0 0 -25.36815 -8.008459 16.3632 26.08777
0.8123412 102.763 6.901492 -0.7064876 1.722854 0.3928762 6.010314 -29.37564 7.408205 -0 27.98954 -0 -5.757532 -10.33131 -3.658084 -5.57695 12.6632 -20.99257 -0 5.724016 -0 1.687748 -23.94596 21.24083 -0.8015216 -1.283109 3.532557 1.262072 7.540313 -7.761376 1.306223 21.80911 8.142056 4.950975 -23.42128 8.720003 6.00219 -17.61371 10.55604 88.48063 35.38824 -23.64586 -0 0 14.45837 -8.345224 9.60834 4.00298 6.133969 -20.63226 -3.25969 -96.68397 38.85604 24.67642 0 0 -25.11068 -7.47764 16.25161 25.22615
1.012582 102.1201 9.632198 -0.9329491 2.716598 0.5239852 6.682765 -32.73229 6.827337 -0 23.72349 -0 -5.859427 -8.425443 -3.298171 -5.559959 13.36949 -20.08412 -0 6.229917 -0 2.459563 -24.69177 20.60993 -0.6223394 -0.9550577 3.217945 1.772712 7.371786 -7.957077 1.223928 21.70355 8.055079 4.784873 -23.89284 8.603011 6.055723 -17.0676 10.7521 88.29344 35.04916 -23.61399 -0 0 13.49613 -8.414655 9.794918 4.446925 5.87219 -20.4822 -3.342474 -95.78924 37.77892 23.73943 0 0 -24.9351 -7.020665 16.14274 24.50988
1.200408 101.365 12.94296 -1.123454 3.445546 0.7755068 7.059157 -35.03688 5.87655 -0 19.89028 -0 -6.143329 -6.210924 -2.696454 -5.52502 14.21598 -19.06612 -0 7.560282 -0 2.686441 -24.72799 19.52633 -0.4601406 -0.6417939 2.961041 2.228365 7.225401 -8.120705 1.14208 21.62246 7.955825 4.617851 -24.3028 8.465124 6.081022 -16.55315 10.93353 88.10613 34.81375 -23.51249 -0 0 12.55863 -8.591841 10.01603 4.918874 5.620197 -20.37135 -3.397416 -94.91104 36.6665 22.82483 0 0 -24.75336 -6.484984 16.03777 23.72644
1.370683 100.5986 16.89934 -1.358165 3.898775 1.154707 7.285949 -36.18585 4.831355 -0 16.92874 -0 -6.568541 -3.955323 -2.02848 -5.387496 15.03187 -17.91333 -0 10.02305 -0 2.098656 -23.93462 17.90467 -0.3633175 -0.3826382 2.783184 2.586522 7.118818 -8.229465 1.063728 21.59078 7.851818 4.458929 -24.59598 8.317855 6.075371 -16.14222 11.08976 87.92205 34.70095 -23.32324 -0 0 11.76977 -8.868891 10.21861 5.395268 5.374512 -20.279 -3.431771 -94.15002 35.65838 22.04943 0 0 -24.54133 -5.972534 15.9191 22.98472
1.520014 99.94842 21.53571 -1.66348 4.026686 1.625097 7.485078 -36.04474 3.86327 -0 14.98609 -0 -7.100379 -1.934885 -1.446004 -5.11013 15.62979 -16.54973 -0 13.98858 -0 0.7190906 -22.17287 15.82658 -0.3284474 -0.161901 2.684931 2.863868 7.047521 -8.283037 0.9838164 21.6134 7.732501 4.295611 -24.78326 8.148837 6.036444 -15.81816 11.23174 87.7157 34.70928 -23.00862 -0 0 11.09561 -9.275808 10.41553 5.911047 5.113869 -20.19424 -3.445345 -93.46548 34.69326 21.38539 0 0 -24.26283 -5.453425 15.78464 22.24437
1.647827 99.55194 26.82271 -2.026797 3.804648 2.104236 7.753667 -34.56627 3.174738 -0 14.10345 -0 -7.642327 -0.529951 -1.143633 -4.68451 15.76469 -15.00786 -0 19.58865 -0 -1.299108 -19.50428 13.56743 -0.3728442 0.01154406 2.671358 3.053058 7.013981 -8.273604 0.9022709 21.69918 7.597926 4.127534 -24.85046 7.959283 5.963331 -15.60426 11.35986 87.47247 34.8336 -22.54488 -0 0 10.57973 -9.818949 10.58959 6.469622 4.829215 -20.09931 -3.441167 -92.88405 33.81006 20.87344 0 0 -23.88941 -4.972592 15.62629 21.54972
1.753422 99.52695 32.66416 -2.37182 3.191236 2.472716 8.069619 -31.78392 2.80859 -0 14.09413 -0 -8.105444 -0.00808633 -1.245686 -4.158397 15.19782 -13.34983 -0 26.75308 -0 -3.596208 -16.16578 11.53815 -0.4978176 0.1399088 2.746985 3.154636 7.016421 -8.197346 0.8194405 21.84762 7.446478 3.953966 -24.79746 7.747243 5.854811 -15.50549 11.47621 87.1696 35.06762 -21.90314 -0 0 10.23571 -10.51759 10.74577 7.082369 4.517587 -19.98637 -3.415182 -92.40394 33.00219 20.52245 0 0 -23.39915 -4.536589 15.44395 20.90698
1.832591 99.93949 38.90115 -2.576433 2.165 2.607908 8.304624 -27.88428 2.681215 -0 14.58161 -0 -8.414653 -0.4235538 -1.763654 -3.626776 13.74689 -11.6874 -0 35.03514 -0 -5.740166 -12.63224 10.15112 -0.7045896 0.2223222 2.913568 3.167236 7.050399 -8.051156 0.737742 22.05382 7.281482 3.779154 -24.6261 7.516541 5.710774 -15.53058 11.57983 86.78371 35.39972 -21.05995 -0 0 10.08974 -11.38376 10.88723 7.751269 4.183732 -19.84775 -3.361199 -92.03459 32.28206 20.34887 0 0 -22.77793 -4.166487 15.23983 20.33923
1.875418 100.7779 45.3404 -2.51258 0.7365838 2.43021 8.295651 -23.1689 2.647744 -0 15.08284 -0 -8.511102 -1.533301 -2.567298 -3.201664 11.3326 -10.12909 -0 43.63616 -0 -7.335107 -9.476268 9.676812 -0.9862562 0.2617008 3.170357 3.092811 7.108932 -7.834904 0.6607833 22.305 7.108785 3.610099 -24.34682 7.273131 5.532444 -15.68015 11.66932 86.28887 35.81518 -19.99518 -0 0 10.1569 -12.43061 11.0271 8.477408 3.839735 -19.68188 -3.269475 -91.77595 31.64689 20.35411 0 0 -22.02302 -3.867862 15.01925 19.85432
1.868593 101.9452 51.7958 -2.111486 -1.017239 1.943333 7.944305 -17.98577 2.619669 -0 15.17527 -0 -8.319366 -2.889395 -3.43733 -2.948921 8.001098 -8.75573 -0 51.44783 -0 -8.150007 -7.173303 10.17163 -1.331315 0.2623793 3.511561 2.936665 7.183027 -7.551977 0.5930569 22.58235 6.937729 3.456388 -23.97689 7.026553 5.323405 -15.94954 11.74273 85.66147 36.29336 -18.69882 -0 0 10.4458 -13.66462 11.1817 9.257594 3.502839 -19.49003 -3.130285 -91.62526 31.09165 20.531 0 0 -21.14383 -3.643534 14.78813 19.45734
1.802681 103.2709 58.12917 -1.419268 -2.94821 1.233841 7.279859 -12.62472 2.617215 -0 14.67034 -0 -7.755334 -4.084141 -4.164297 -2.824224 3.90444 -7.600324 -0 57.23709 -0 -8.199762 -5.918123 11.50081 -1.722621 0.2310791 3.92683 2.708176 7.264129 -7.209864 0.5392611 22.86177 6.779604 3.328466 -23.53954 6.788122 5.090265 -16.32696 11.79872 84.88405 36.80757 -17.17436 -0 0 10.95259 -15.08523 11.37113 10.08637 3.193032 -19.27715 -2.936504 -91.57309 30.60182 20.86064 0 0 -20.16246 -3.487574 14.55106 19.14437
1.681014 104.5406 64.27313 -0.6064277 -4.857171 0.4211961 6.456608 -7.279525 2.726413 -0 13.68897 -0 -6.789665 -5.011761 -4.631482 -2.662849 -0.730508 -6.653367 -0 59.89692 -0 -7.744886 -5.600676 13.40973 -2.138933 0.1759158 4.401239 2.42036 7.346035 -6.820155 0.5037235 23.11675 6.646511 3.236071 -23.06116 6.570155 4.843131 -16.79474 11.83719 83.95114 37.32469 -15.44437 -0 0 11.66127 -16.68033 11.61547 10.95475 2.929883 -19.05025 -2.686879 -91.60592 30.15805 21.31659 0 0 -19.11201 -3.38995 14.3103 18.90759
1.525602 105.5341 70.23187 0.08798463 -6.535171 -0.4077919 5.685619 -2.087398 3.001703 -0 12.57887 -0 -5.497842 -5.939625 -4.822484 -2.255744 -5.62926 -5.876889 -0 58.76103 -0 -7.172932 -5.92172 15.58612 -2.555604 0.1058674 4.916341 2.089029 7.427029 -6.398188 0.4898492 23.32124 6.549556 3.186508 -22.5684 6.384576 4.595671 -17.33009 11.8599 82.87494 37.80617 -13.55504 -0 0 12.54294 -18.4232 11.93208 11.84968 2.729667 -18.81772 -2.388593 -91.70694 29.73742 21.86763 0 0 -18.03436 -3.337168 14.06535 18.73644
1.37625 106.0717 76.06826 0.4609371 -7.797608 -1.228393 5.127694 2.803469 3.403517 -0 11.72712 -0 -4.023649 -7.302384 -4.763254 -1.480762 -10.48781 -5.222774 -0 53.90255 -0 -6.815156 -6.54171 17.69803 -2.946207 0.03005937 5.450175 1.73246 7.510652 -5.96294 0.4994847 23.45324 6.497086 3.182934 -22.08583 6.241708 4.364588 -17.90556 11.87083 81.69134 38.21023 -11.58134 -0 0 13.55483 -20.26824 12.3316 12.75261 2.602448 -18.58818 -2.05908 -91.85697 29.31725 22.47948 0 0 -16.97735 -3.315184 13.81317 18.62028
1.281827 106.062 81.88671 0.451961 -8.507759 -2.053446 4.797584 7.215238 3.821872 -0 11.40451 -0 -2.489264 -9.336944 -4.471714 -0.4114629 -15.00087 -4.660185 -0 46.28492 -0 -6.805444 -7.17816 19.43567 -3.284993 -0.04276755 5.976792 1.371615 7.60532 -5.537142 0.5321681 23.49837 6.492798 3.222732 -21.63408 6.14863 4.168268 -18.48873 11.87634 80.46375 38.49592 -9.629442 -0 0 14.63831 -22.14915 12.81451 13.6389 2.549605 -18.37005 -1.726153 -92.03327 28.87793 23.11297 0 0 -15.99128 -3.311315 13.5484 18.54905
1.288115 105.5352 87.81295 0.189528 -8.611352 -2.884227 4.536765 10.9857 4.157149 -0 11.7578 -0 -0.9461039 -11.79558 -3.965121 0.6671108 -18.89719 -4.211461 -0 37.60526 -0 -7.053747 -7.654511 20.57602 -3.550684 -0.1049956 6.46583 1.030254 7.722427 -5.14714 0.58453 23.45301 6.534424 3.296663 -21.22819 6.107634 4.02441 -19.04221 11.88452 79.28168 38.63004 -7.832933 -0 0 15.71791 -23.98184 13.36972 14.47831 2.562822 -18.17194 -1.425294 -92.20778 28.40607 23.71997 0 0 -15.12444 -3.316101 13.26435 18.51325
1.429244 104.6421 93.96875 -0.06703535 -8.1896 -3.682395 4.091411 14.02323 4.385512 -0 12.94892 -0 0.5868731 -13.93927 -3.311383 1.361708 -21.95503 -3.96826 -0 29.78342 -0 -7.330573 -7.928804 21.04824 -3.730479 -0.1511348 6.883721 0.7337041 7.873433 -4.821629 0.6503403 23.32559 6.613863 3.389719 -20.8764 6.115629 3.946896 -19.52545 11.90336 78.2508 38.59585 -6.338749 -0 0 16.70446 -25.67481 13.97742 15.237 2.625956 -18.00417 -1.193663 -92.34637 27.89758 24.24041 0 0 -14.41897 -3.323691 12.9551 18.50324
1.723183 103.614 100.4434 -0.07353447 -7.484978 -4.378381 3.273995 16.28895 4.559829 -0 15.30134 -0 2.048188 -14.85175 -2.676806 1.355969 -23.97412 -4.050358 -0 24.2779 -0 -7.40458 -8.089944 20.94835 -3.822507 -0.178809 7.196995 0.5058774 8.066628 -4.588848 0.7214732 23.13491 6.719336 3.483972 -20.57989 6.165378 3.942761 -19.89866 11.93818 77.47551 38.40027 -5.28454 -0 0 17.50386 -27.14457 14.61595 15.88113 2.719858 -17.88047 -1.062381 -92.41091 27.35944 24.60397 0 0 -13.9088 -3.330408 12.61875 18.50836
2.166554 102.7059 107.2659 0.2556422 -6.836862 -4.887686 2.110476 17.68574 4.751575 -0 19.26337 -0 3.326277 -13.91213 -2.306414 0.5793562 -24.72898 -4.509718 -0 21.58607 -0 -7.155227 -8.292569 20.47452 -3.835244 -0.1891429 7.376941 0.3654587 8.304681 -4.472817 0.7894952 22.90553 6.838901 3.562441 -20.33439 6.248324 4.010359 -20.12833 11.98915 77.04032 38.07475 -4.774889 -0 0 18.02995 -28.33092 15.26947 16.38154 2.828226 -17.81839 -1.050224 -92.36377 26.80834 24.73803 0 0 -13.62016 -3.331746 12.2601 18.51592
